<?xml version="1.0" encoding="UTF-8"?>
<svg id="Layer_1" data-name="Layer 1" xmlns="http://www.w3.org/2000/svg" xmlns:xlink="http://www.w3.org/1999/xlink" viewBox="0 0 82.02 99.99">
  <defs>
    <style>
      .cls-1 {
        fill: url(#Unbenannter_Verlauf_3-3);
      }

      .cls-2 {
        fill: url(#Unbenannter_Verlauf_3-2);
      }

      .cls-3 {
        fill: url(#Unbenannter_Verlauf_3);
      }
    </style>
    <linearGradient id="Unbenannter_Verlauf_3" data-name="Unbenannter Verlauf 3" x1="0" y1="50" x2="82.02" y2="50" gradientUnits="userSpaceOnUse">
      <stop offset="0" stop-color="#f50"/>
      <stop offset=".41" stop-color="#f50"/>
      <stop offset=".58" stop-color="#ff2000"/>
      <stop offset="1" stop-color="#ff2000"/>
    </linearGradient>
    <linearGradient id="Unbenannter_Verlauf_3-2" data-name="Unbenannter Verlauf 3" x1="71.15" y1="39.92" x2="82.02" y2="39.92" xlink:href="#Unbenannter_Verlauf_3"/>
    <linearGradient id="Unbenannter_Verlauf_3-3" data-name="Unbenannter Verlauf 3" x1="21.81" y1="46.99" y2="46.99" xlink:href="#Unbenannter_Verlauf_3"/>
  </defs>
  <path class="cls-3" d="m71.15,24.17v33.24c0,7.98-4.31,15.39-11.24,19.33l-18.89,10.74-18.89-10.74c-6.93-3.95-11.24-11.35-11.24-19.33V23.92l30.14-12.29,18.9,7.85,8.43-8.43L41.01,0,0,16.42v40.99c0,11.88,6.42,22.91,16.74,28.78l24.27,13.8,24.27-13.8c10.33-5.87,16.74-16.9,16.74-28.78v-28.74l-10.87-4.51h0Z"/>
  <rect class="cls-2" x="71.15" y="28.68" width="10.87" height="22.49"/>
  <polygon class="cls-1" points="71.15 24.17 82.02 28.68 40.88 69.82 21.81 50.75 29.5 43.06 40.88 54.44 71.15 24.17"/>
</svg>